<?xml version="1.0" standalone="no"?>
<!DOCTYPE svg PUBLIC "-//W3C//DTD SVG 20010904//EN"
 "http://www.w3.org/TR/2001/REC-SVG-20010904/DTD/svg10.dtd">
<svg version="1.0" xmlns="http://www.w3.org/2000/svg"
 width="646.000000pt" height="646.000000pt" viewBox="0 0 646.000000 646.000000"
 preserveAspectRatio="xMidYMid meet">
<metadata>
Created by potrace 1.14, written by Peter Selinger 2001-2017
</metadata>
<g transform="translate(0.000000,646.000000) scale(0.100000,-0.100000)"
fill="#000000" stroke="none">
<path d="M856 5141 c-3 -4 -5 -915 -5 -2024 l1 -2017 371 2 372 3 2 875 c1
481 2 880 2 885 1 8 374 11 1211 10 l1210 0 0 881 0 881 76 1 c42 0 78 3 81 6
5 4 8 396 4 483 l-1 21 -1660 0 c-913 0 -1662 -3 -1664 -7z m900 -1128 l1
-623 -44 0 -43 0 0 624 0 624 43 -2 42 -1 1 -622z m144 2 c0 -610 0 -623 -20
-628 -10 -3 -23 0 -28 7 -5 6 -9 274 -9 627 l0 616 29 1 28 1 0 -624z m190 -1
l0 -622 -32 -3 c-18 -2 -42 -3 -53 -1 -20 3 -20 10 -20 627 l0 623 53 -1 52 0
0 -623z m322 612 c4 -10 3 -1186 -1 -1226 -1 -11 -10 -15 -28 -14 -16 1 -46 3
-68 3 l-40 1 0 624 0 624 67 0 c41 0 68 -4 70 -12z m233 -610 c0 -700 9 -634
-87 -628 l-53 4 2 566 c1 312 2 592 3 623 l0 57 68 -2 67 -1 0 -619z m525 -1
l0 -623 -42 -3 c-24 -2 -57 -3 -74 -1 l-31 3 0 622 0 622 73 2 74 1 0 -623z
m195 1 c0 -694 7 -636 -75 -628 l-39 4 1 623 1 624 56 -2 56 -2 0 -619z m255
-2 l0 -624 -25 -1 c-90 -2 -137 -1 -141 4 -4 3 -7 991 -4 1218 0 27 0 27 85
27 l85 1 0 -625z m230 0 c0 -587 -1 -624 -17 -625 -10 0 -33 -1 -51 -2 -22 -1
-32 3 -33 13 -3 30 -5 1225 -3 1231 2 3 26 6 53 6 l51 2 0 -625z"/>
<path d="M3969 2018 c0 -18 -1 -97 -1 -175 0 -79 -2 -143 -4 -143 -2 0 -11 9
-21 19 -47 50 -216 64 -308 26 -120 -51 -192 -168 -199 -320 -5 -126 37 -234
117 -298 59 -47 100 -61 187 -63 92 -1 149 17 195 62 l35 34 0 -40 c0 -44 -5
-41 90 -43 44 0 45 1 50 34 3 19 4 238 2 487 l-2 452 -70 0 -70 0 -1 -32z
m-76 -386 c57 -32 72 -73 74 -198 2 -104 1 -115 -25 -165 -36 -72 -75 -94
-164 -93 -60 0 -72 4 -105 30 -58 46 -86 113 -85 207 0 134 50 214 147 238 46
11 124 2 158 -19z"/>
<path d="M4316 1980 c1 -39 4 -73 7 -77 9 -9 128 -10 133 -1 5 7 7 74 5 126
-1 21 -5 22 -73 22 l-73 0 1 -70z"/>
<path d="M5495 1975 c0 -84 -10 -76 93 -78 l47 -1 3 77 3 77 -73 0 -73 0 0
-75z"/>
<path d="M2060 1755 c-63 -16 -101 -38 -144 -81 -78 -78 -115 -202 -95 -323
20 -124 75 -203 176 -253 62 -30 74 -33 162 -32 84 0 104 3 159 28 118 54 184
160 188 306 4 100 -19 181 -69 247 -77 101 -231 145 -377 108z m204 -125 c20
-12 49 -43 64 -68 24 -42 27 -56 27 -142 0 -83 -3 -102 -26 -145 -30 -59 -74
-91 -136 -101 -129 -19 -224 77 -227 231 -2 124 38 206 119 241 44 19 136 11
179 -16z"/>
<path d="M2867 1755 c-176 -48 -273 -226 -233 -431 19 -100 80 -180 172 -225
58 -29 75 -32 152 -33 48 0 106 5 129 12 94 28 186 118 214 210 18 62 20 186
3 243 -44 147 -151 229 -308 234 -45 2 -102 -3 -129 -10z m201 -119 c67 -34
107 -131 100 -240 -9 -136 -67 -210 -175 -222 -98 -12 -180 50 -208 157 -33
125 8 260 95 306 50 27 135 26 188 -1z"/>
<path d="M4961 1761 c-50 -13 -82 -32 -116 -68 l-30 -33 -3 42 c-1 23 -4 43
-5 44 -4 4 -43 6 -89 5 l-48 -1 0 -335 c0 -261 3 -335 13 -336 13 -1 106 -1
122 0 7 1 10 70 10 194 -1 105 3 212 8 237 18 89 83 143 172 143 65 0 108 -23
130 -70 16 -33 19 -68 20 -267 1 -213 2 -230 19 -236 22 -7 101 -4 115 5 14 8
13 456 0 510 -15 57 -58 116 -107 143 -46 26 -153 37 -211 23z"/>
<path d="M4343 1752 c-13 -2 -23 -6 -24 -10 -5 -46 -2 -655 4 -659 4 -2 37 -5
72 -6 59 -2 65 0 66 18 3 66 0 647 -3 650 -6 6 -89 11 -115 7z"/>
<path d="M5499 1755 c-1 0 -2 -152 -3 -337 l-1 -338 22 -1 c13 -1 34 -1 48 -1
14 0 36 0 50 1 l25 1 0 335 c0 261 -3 335 -12 336 -10 0 -119 4 -129 4z"/>
</g>
</svg>
