<?xml version="1.0" standalone="no"?>
<!DOCTYPE svg PUBLIC "-//W3C//DTD SVG 20010904//EN"
 "http://www.w3.org/TR/2001/REC-SVG-20010904/DTD/svg10.dtd">
<svg version="1.0" xmlns="http://www.w3.org/2000/svg"
 width="162.000000pt" height="162.000000pt" viewBox="0 0 162.000000 162.000000"
 preserveAspectRatio="xMidYMid meet">
<metadata>
Created by potrace 1.14, written by Peter Selinger 2001-2017
</metadata>
<g transform="translate(0.000000,162.000000) scale(0.100000,-0.100000)"
fill="#000000" stroke="none">
<path d="M219 1268 c-4 -120 -1 -980 4 -984 5 -5 110 -8 167 -5 13 1 15 31 15
219 l0 217 303 3 302 2 0 220 c0 210 1 220 19 220 25 0 27 8 23 75 l-4 55
-414 0 -414 0 -1 -22z m222 -140 c1 -46 1 -206 0 -245 -1 -18 -5 -33 -10 -33
-5 0 -9 70 -9 155 0 85 4 155 9 155 5 0 9 -15 10 -32z m39 -125 c0 -86 -3
-154 -6 -150 -4 3 -6 62 -6 132 1 169 1 175 7 175 3 0 5 -70 5 -157z m47 5
c-1 -101 -6 -153 -13 -155 -8 -3 -11 42 -11 152 1 117 4 155 13 155 10 0 12
-36 11 -152z m81 -3 c-1 -137 -3 -156 -17 -153 -13 3 -16 24 -16 156 0 135 1
152 16 152 15 0 17 -17 17 -155z m56 12 c-2 -174 -1 -167 -18 -167 -11 0 -14
29 -14 155 1 136 3 155 17 155 14 0 16 -17 15 -143z m133 -12 c0 -139 -1 -155
-17 -155 -15 0 -16 16 -17 155 -1 140 1 155 16 155 16 0 18 -16 18 -155z m48
0 c0 -119 -2 -155 -12 -155 -10 0 -13 36 -13 155 0 117 3 155 13 155 9 0 12
-38 12 -155z m65 0 c0 -148 -1 -155 -20 -155 -19 0 -20 7 -20 155 0 148 1 155
20 155 19 0 20 -7 20 -155z m56 3 c-1 -104 -5 -153 -12 -155 -9 -3 -12 39 -12
152 1 118 4 155 13 155 10 0 13 -36 11 -152z"/>
<path d="M995 481 c0 -36 0 -36 -44 -37 -58 -1 -91 -38 -87 -96 5 -62 27 -78
105 -76 l66 1 -2 115 c-1 63 -5 117 -8 120 -18 18 -31 7 -30 -27z m-9 -73 c9
-10 12 -63 4 -84 -12 -30 -64 -34 -79 -6 -14 26 -6 73 14 88 14 11 51 12 61 2z"/>
<path d="M1085 512 c-10 -11 -4 -30 11 -36 22 -8 33 1 27 22 -4 17 -27 25 -38
14z"/>
<path d="M1387 513 c-14 -14 -6 -39 12 -39 11 0 17 6 16 16 -2 8 -4 18 -4 23
-1 9 -15 9 -24 0z"/>
<path d="M514 440 c-82 -31 -64 -170 21 -170 57 0 83 18 93 64 10 47 -6 91
-37 101 -37 11 -56 13 -77 5z m69 -40 c13 -12 11 -68 -3 -85 -15 -18 -51 -20
-68 -3 -17 17 -15 74 4 93 16 15 48 13 67 -5z"/>
<path d="M712 439 c-35 -13 -55 -54 -49 -97 8 -46 38 -72 86 -72 45 1 69 18
81 59 22 76 -44 137 -118 110z m77 -48 c12 -22 5 -72 -11 -82 -40 -26 -78 2
-78 55 0 47 68 68 89 27z"/>
<path d="M1246 443 c-3 -4 -22 -6 -41 -5 l-35 1 0 -84 c0 -78 2 -85 20 -85 18
0 20 7 20 58 0 60 6 76 30 84 36 12 50 -10 50 -77 0 -59 2 -65 20 -65 19 0 21
6 19 68 -1 38 -7 76 -14 85 -12 16 -59 30 -69 20z"/>
<path d="M1392 441 c-8 -5 -14 -36 -15 -89 -2 -77 -1 -82 19 -82 19 0 20 6 19
85 -1 89 -3 98 -23 86z"/>
<path d="M1082 355 c1 -75 4 -85 20 -85 19 0 20 3 20 75 0 91 -1 95 -21 95
-18 0 -20 -7 -19 -85z"/>
</g>
</svg>
